<svg xmlns="http://www.w3.org/2000/svg" xmlns:xlink="http://www.w3.org/1999/xlink" viewBox="0 0 500 500"><defs><clipPath id="freepik--clip-path--inject-42"><ellipse cx="248.5" cy="423.5" rx="188.5" ry="26.5" style="fill:#263238"></ellipse></clipPath><clipPath id="freepik--clip-path-2--inject-42"><path d="M216.33,92.07S184.4,176,184.28,181.94,195.67,407.4,195.67,407.4s-8.67,6-16.67,0l-1.33-226,24-89.33Z" style="fill:#fff;stroke:#263238;stroke-linecap:round;stroke-linejoin:round"></path></clipPath><clipPath id="freepik--clip-path-3--inject-42"><path d="M185,93.4s-14.67,82.67-15.33,88,1.33,224,1.33,224-7.33,10-17.33,0l8-226,12.66-86Z" style="fill:#FDFA00;stroke:#263238;stroke-linecap:round;stroke-linejoin:round"></path></clipPath><clipPath id="freepik--clip-path-4--inject-42"><path d="M161,93.4s-10,88-10,96.67-.67,215.33-.67,215.33-9.33,8-17.33,0c0,0,6-214,8-218s6.67-94,6.67-94Z" style="fill:#FDFA00;stroke:#263238;stroke-linecap:round;stroke-linejoin:round"></path></clipPath><clipPath id="freepik--clip-path-5--inject-42"><path d="M133,92.73l-3.57,311.34s-7.14,10.66-13.76,0l5.6-310Z" style="fill:#FDFA00;stroke:#263238;stroke-linecap:round;stroke-linejoin:round"></path></clipPath><clipPath id="freepik--clip-path-6--inject-42"><path d="M98.33,92.07V404.69s5.56,7.43,13.34,0V92.07Z" style="fill:#FDFA00;stroke:#263238;stroke-linecap:round;stroke-linejoin:round"></path></clipPath><clipPath id="freepik--clip-path-7--inject-42"><path d="M284.4,92.07s31.93,83.92,32.05,89.87S305.06,407.4,305.06,407.4s8.67,6,16.67,0l1.33-226-24-89.33Z" style="fill:#fff;stroke:#263238;stroke-linecap:round;stroke-linejoin:round"></path></clipPath><clipPath id="freepik--clip-path-8--inject-42"><path d="M315.73,93.4s14.67,82.67,15.33,88-1.33,224-1.33,224,7.33,10,17.33,0l-8-226-12.66-86Z" style="fill:#FDFA00;stroke:#263238;stroke-linecap:round;stroke-linejoin:round"></path></clipPath><clipPath id="freepik--clip-path-9--inject-42"><path d="M339.73,93.4s10,88,10,96.67.67,215.33.67,215.33,9.33,8,17.33,0c0,0-6-214-8-218s-6.67-94-6.67-94Z" style="fill:#FDFA00;stroke:#263238;stroke-linecap:round;stroke-linejoin:round"></path></clipPath><clipPath id="freepik--clip-path-10--inject-42"><path d="M367.73,92.73l3.57,311.34s7.14,10.66,13.76,0l-5.61-310Z" style="fill:#FDFA00;stroke:#263238;stroke-linecap:round;stroke-linejoin:round"></path></clipPath><clipPath id="freepik--clip-path-11--inject-42"><path d="M402.4,92.07V404.69s-5.56,7.43-13.34,0V92.07Z" style="fill:#FDFA00;stroke:#263238;stroke-linecap:round;stroke-linejoin:round"></path></clipPath><clipPath id="freepik--clip-path-12--inject-42"><path d="M270.58,321.23c2.5-12.25-2-30.25-3.25-34.25a13.12,13.12,0,0,0-3.75-6,54.61,54.61,0,0,1-24,0s-5,6-8.25,18.25,2.5,29.5,5,35.25,2.25,8.5,1.25,14.75-2.75,15.5-.75,23.75,6.5,26.75,6.5,29a4.26,4.26,0,0,1-.21,1.33,7.31,7.31,0,0,0,5.38.61c-.07-1.87-.17-3.6-.17-4.69,0-3.5,1.25-23.5,1.25-28.75V364s1.92,24.94,2.21,31.51c2-1.1,4.38-.43,6.3.58,0-.12,0-.23,0-.34,0-2.25,3-18.75,3.25-28.75s-2.75-14.5-2.5-17.5S268.08,333.48,270.58,321.23Z" style="fill:#FDFA00;stroke:#263238;stroke-linecap:round;stroke-linejoin:round"></path></clipPath><clipPath id="freepik--clip-path-13--inject-42"><path d="M309,205.65a8.32,8.32,0,0,0-4.9-2.56c-3.24,3.16-6.6,6-8,7.39-2.75,2.75-6.5,9.25-6.5,9.25s-6,5.75-10.75,7.5-16.25,9.5-16.25,9.5a17.63,17.63,0,0,0-12.06-1.48,17.63,17.63,0,0,0-12.06,1.48s-11.5-7.75-16.25-9.5-10.75-7.5-10.75-7.5-3.75-6.5-6.5-9.25c-1.81-1.8-7-6.09-10.84-10.31a8.53,8.53,0,0,0-3.64,2.56c2.81,5.15,7.09,12.87,8.79,15.25,2.62,3.69,8,8.21,10.59,11.07S225.44,243,227.7,244.63s5,6.78,5,6.78-3,6.67-4.17,10.47a43.57,43.57,0,0,1-3.92,8.21s11.89,5.47,18.79,6.9a36.56,36.56,0,0,0,14.24,0c6.9-1.43,18.8-6.9,18.8-6.9a43.32,43.32,0,0,1-3.93-8.21c-1.19-3.8-4.16-10.47-4.16-10.47s2.73-5.11,5-6.78,15.23-12.73,17.85-15.58,8-7.38,10.59-11.07C303.17,216,306.33,210.43,309,205.65Z" style="fill:none;stroke:#263238;stroke-linecap:round;stroke-linejoin:round"></path></clipPath></defs><g id="freepik--background-simple--inject-42"><path d="M428.22,324.41c7.91-73.65-30.38-171.55-70.08-212-71.66-73-131.2-58.87-177.5-32.73s-52.92,113.41-84.9,152.9S45.58,325.2,94.09,378.07s87.65,26,138.37,22.65,118,23,154.35.1C412.22,384.79,424.73,357,428.22,324.41Z" style="fill:#FDFA00"></path><path d="M428.22,324.41c7.91-73.65-30.38-171.55-70.08-212-71.66-73-131.2-58.87-177.5-32.73s-52.92,113.41-84.9,152.9S45.58,325.2,94.09,378.07s87.65,26,138.37,22.65,118,23,154.35.1C412.22,384.79,424.73,357,428.22,324.41Z" style="fill:#fff;opacity:0.7000000000000001"></path><path d="M401.38,181.31c19.34,44.39,31.66,98.24,26.84,143.1C425.48,350,417.15,372.66,401.38,389ZM99.43,227.67q-1.79,2.58-3.69,4.94c-32,39.48-50.16,92.59-1.65,145.46,1.8,1.95,3.58,3.78,5.34,5.53Zm243-134.59c-64.7-51.46-118.92-37.58-161.8-13.37-7.82,4.41-14.5,10.57-20.36,13.37Z" style="fill:#FDFA00"></path><path d="M401.38,181.31c19.34,44.39,31.66,98.24,26.84,143.1C425.48,350,417.15,372.66,401.38,389ZM99.43,227.67q-1.79,2.58-3.69,4.94c-32,39.48-50.16,92.59-1.65,145.46,1.8,1.95,3.58,3.78,5.34,5.53Zm243-134.59c-64.7-51.46-118.92-37.58-161.8-13.37-7.82,4.41-14.5,10.57-20.36,13.37Z" style="fill:#fff;opacity:0.7000000000000001"></path></g><g id="freepik--Floor--inject-42"><ellipse cx="248.5" cy="423.5" rx="188.5" ry="26.5" style="fill:#263238"></ellipse><g style="clip-path:url(#freepik--clip-path--inject-42)"><path d="M239.08,408l8.25,5-4.51,37h9.31l4.45-38.51,7.5,1.75L273,449.78c25.47-.47,49.34-1.65,70.57-3.39l-38.5-39H195.67l-40.32,39.14c21,1.69,44.62,2.82,69.73,3.25Z" style="fill:#fff;opacity:0.5"></path></g></g><g id="freepik--Trees--inject-42"><polygon points="181.31 388.12 250.46 353 282.01 374.77 310.21 356.51 310.21 396.55 185.34 396.55 181.31 388.12" style="fill:#FDFA00"></polygon><polygon points="181.31 388.12 250.46 353 282.01 374.77 310.21 356.51 310.21 396.55 185.34 396.55 181.31 388.12" style="fill:#fff;opacity:0.30000000000000004"></polygon><path d="M169.11,350s24.54,2.43,37,17.65c0,0,13.15-17.63,36.75-17.27a47.71,47.71,0,1,0-73.74-.34Z" style="fill:#FDFA00"></path><path d="M169.11,350s24.54,2.43,37,17.65c0,0,13.15-17.63,36.75-17.27a47.71,47.71,0,1,0-73.74-.34Z" style="fill:#fff;opacity:0.4"></path><polygon points="205.28 275.61 204.45 398.66 208.59 398.66 205.28 275.61" style="fill:#263238"></polygon><path d="M206.52,363s8.29-14.92,23.2-19.47c0,0-15.74,3.73-23.61,16.57Z" style="fill:#263238"></path><path d="M206.52,320.77s8.29-14.91,23.2-19.47c0,0-15.74,3.73-23.61,16.57Z" style="fill:#263238"></path><path d="M206.52,341.9s8.29-14.91,23.2-19.47c0,0-15.74,3.73-23.61,16.57Z" style="fill:#263238"></path><path d="M205.3,331.54s-8-14.91-22.39-19.47c0,0,15.19,3.73,22.78,16.57Z" style="fill:#263238"></path><path d="M205.3,352.26s-8-14.92-22.39-19.47c0,0,15.19,3.72,22.78,16.57Z" style="fill:#263238"></path><path d="M249.45,329.66s34.82,3.44,52.47,25c0,0,18.65-25,52.14-24.49a67.69,67.69,0,1,0-104.62-.48Z" style="fill:#FDFA00"></path><path d="M249.45,329.66s34.82,3.44,52.47,25c0,0,18.65-25,52.14-24.49a67.69,67.69,0,1,0-104.62-.48Z" style="fill:#fff;opacity:0.4"></path><polygon points="300.77 224.09 299.59 398.66 305.47 398.66 300.77 224.09" style="fill:#263238"></polygon><path d="M302.53,348.11s11.76-21.16,32.92-27.62c0,0-22.34,5.29-33.51,23.51Z" style="fill:#263238"></path><path d="M302.53,288.16s11.76-21.16,32.92-27.63c0,0-22.34,5.29-33.51,23.51Z" style="fill:#263238"></path><path d="M302.53,318.13s11.76-21.15,32.92-27.62c0,0-22.34,5.29-33.51,23.51Z" style="fill:#263238"></path><path d="M300.79,303.44S289.45,282.28,269,275.82c0,0,21.55,5.29,32.33,23.51Z" style="fill:#263238"></path><path d="M300.79,332.83S289.45,311.67,269,305.2c0,0,21.55,5.29,32.33,23.51Z" style="fill:#263238"></path></g><g id="freepik--Clouds--inject-42"><path d="M258.52,148.8c-4.14-2.26-6-.38-7.53-2.26s4.14-6.77-7.15-11.66c0,0-.75-10.54-16.18-10.91s-11.29,10.53-15.42,13.16-5.27-1.5-9.41,1.13-2.26,7.9-5.64,8.66-7.91-3.39-12-.76-4.14,4.9-6,4.9-5.65-1.51-7.91,0-4.89,3.38-4.89,3.38h95.19S262.65,151.06,258.52,148.8Z" style="fill:#FDFA00"></path><path d="M278.43,189.69c-2.51-1.36-3.65-.22-4.56-1.36s2.51-4.1-4.32-7.06c0,0-.46-6.37-9.79-6.6s-6.83,6.38-9.33,8-3.19-.91-5.69.68-1.37,4.78-3.41,5.24-4.78-2.05-7.29-.46-2.5,3-3.64,3-3.41-.91-4.78,0-3,2.05-3,2.05h57.59S280.93,191.06,278.43,189.69Z" style="fill:#FDFA00"></path><path d="M321.76,199.69c-2.5-1.36-3.64-.22-4.55-1.36s2.5-4.1-4.33-7.06c0,0-.45-6.37-9.78-6.6s-6.83,6.38-9.34,8-3.18-.91-5.69.68-1.36,4.78-3.41,5.24-4.78-2.05-7.28-.46-2.51,3-3.65,3-3.41-.91-4.78,0-2.95,2.05-2.95,2.05h57.58S324.26,201.06,321.76,199.69Z" style="fill:#FDFA00"></path><path d="M258.52,148.8c-4.14-2.26-6-.38-7.53-2.26s4.14-6.77-7.15-11.66c0,0-.75-10.54-16.18-10.91s-11.29,10.53-15.42,13.16-5.27-1.5-9.41,1.13-2.26,7.9-5.64,8.66-7.91-3.39-12-.76-4.14,4.9-6,4.9-5.65-1.51-7.91,0-4.89,3.38-4.89,3.38h95.19S262.65,151.06,258.52,148.8Z" style="fill:#fff;opacity:0.4"></path><path d="M278.43,189.69c-2.51-1.36-3.65-.22-4.56-1.36s2.51-4.1-4.32-7.06c0,0-.46-6.37-9.79-6.6s-6.83,6.38-9.33,8-3.19-.91-5.69.68-1.37,4.78-3.41,5.24-4.78-2.05-7.29-.46-2.5,3-3.64,3-3.41-.91-4.78,0-3,2.05-3,2.05h57.59S280.93,191.06,278.43,189.69Z" style="fill:#fff;opacity:0.4"></path><path d="M321.76,199.69c-2.5-1.36-3.64-.22-4.55-1.36s2.5-4.1-4.33-7.06c0,0-.45-6.37-9.78-6.6s-6.83,6.38-9.34,8-3.18-.91-5.69.68-1.36,4.78-3.41,5.24-4.78-2.05-7.28-.46-2.51,3-3.65,3-3.41-.91-4.78,0-2.95,2.05-2.95,2.05h57.58S324.26,201.06,321.76,199.69Z" style="fill:#fff;opacity:0.4"></path></g><g id="freepik--Sun--inject-42"><circle cx="273.67" cy="121.33" r="12.67" transform="translate(7.02 257.41) rotate(-50.95)" style="fill:#FDFA00"></circle><circle cx="273.67" cy="121.33" r="12.67" transform="translate(7.02 257.41) rotate(-50.95)" style="fill:#fff;opacity:0.4"></circle></g><g id="freepik--Window--inject-42"><rect x="247.81" y="93.73" width="4.68" height="298.67" style="fill:#263238;stroke:#263238;stroke-linecap:round;stroke-linejoin:round"></rect><rect x="247.81" y="48.94" width="4.68" height="236.01" transform="translate(417.09 -83.21) rotate(90)" style="fill:#263238;stroke:#263238;stroke-linecap:round;stroke-linejoin:round"></rect><rect x="247.81" y="125.15" width="4.68" height="236.01" transform="translate(493.31 -6.99) rotate(90)" style="fill:#263238;stroke:#263238;stroke-linecap:round;stroke-linejoin:round"></rect><rect x="107" y="392" width="286" height="9.4" style="fill:#263238;stroke:#263238;stroke-linecap:round;stroke-linejoin:round"></rect><polygon points="210.33 93.4 181.18 181.22 184.33 404.74 179 407.4 98.33 404.69 98.33 93.4 210.33 93.4" style="fill:#fff;stroke:#263238;stroke-linecap:round;stroke-linejoin:round"></polygon><path d="M216.33,92.07S184.4,176,184.28,181.94,195.67,407.4,195.67,407.4s-8.67,6-16.67,0l-1.33-226,24-89.33Z" style="fill:#fff"></path><g style="clip-path:url(#freepik--clip-path-2--inject-42)"><path d="M213.33,92.07S181.4,176,181.28,181.94,192.67,407.4,192.67,407.4s-8.67,6-16.67,0l-1.33-226,24-89.33Z" style="fill:#FDFA00"></path><path d="M213.33,92.07S181.4,176,181.28,181.94,192.67,407.4,192.67,407.4s-8.67,6-16.67,0l-1.33-226,24-89.33Z" style="fill:#fff;opacity:0.4"></path></g><path d="M216.33,92.07S184.4,176,184.28,181.94,195.67,407.4,195.67,407.4s-8.67,6-16.67,0l-1.33-226,24-89.33Z" style="fill:none;stroke:#263238;stroke-linecap:round;stroke-linejoin:round"></path><path d="M185,93.4s-14.67,82.67-15.33,88,1.33,224,1.33,224-7.33,10-17.33,0l8-226,12.66-86Z" style="fill:#FDFA00"></path><g style="clip-path:url(#freepik--clip-path-3--inject-42)"><path d="M185,93.4s-14.67,82.67-15.33,88,1.33,224,1.33,224-7.33,10-17.33,0l8-226,12.66-86Z" style="fill:#fff;opacity:0.4"></path></g><path d="M185,93.4s-14.67,82.67-15.33,88,1.33,224,1.33,224-7.33,10-17.33,0l8-226,12.66-86Z" style="fill:none;stroke:#263238;stroke-linecap:round;stroke-linejoin:round"></path><path d="M161,93.4s-10,88-10,96.67-.67,215.33-.67,215.33-9.33,8-17.33,0c0,0,6-214,8-218s6.67-94,6.67-94Z" style="fill:#FDFA00"></path><g style="clip-path:url(#freepik--clip-path-4--inject-42)"><path d="M161,93.4s-10,88-10,96.67-.67,215.33-.67,215.33-9.33,8-17.33,0c0,0,6-214,8-218s6.67-94,6.67-94Z" style="fill:#fff;opacity:0.4"></path></g><path d="M161,93.4s-10,88-10,96.67-.67,215.33-.67,215.33-9.33,8-17.33,0c0,0,6-214,8-218s6.67-94,6.67-94Z" style="fill:none;stroke:#263238;stroke-linecap:round;stroke-linejoin:round"></path><path d="M133,92.73l-3.57,311.34s-7.14,10.66-13.76,0l5.6-310Z" style="fill:#FDFA00"></path><g style="clip-path:url(#freepik--clip-path-5--inject-42)"><path d="M133,92.73l-3.57,311.34s-7.14,10.66-13.76,0l5.6-310Z" style="fill:#fff;opacity:0.4"></path></g><path d="M133,92.73l-3.57,311.34s-7.14,10.66-13.76,0l5.6-310Z" style="fill:none;stroke:#263238;stroke-linecap:round;stroke-linejoin:round"></path><path d="M98.33,92.07V404.69s5.56,7.43,13.34,0V92.07Z" style="fill:#FDFA00"></path><g style="clip-path:url(#freepik--clip-path-6--inject-42)"><path d="M98.33,92.07V404.69s5.56,7.43,13.34,0V92.07Z" style="fill:#fff;opacity:0.4"></path></g><path d="M98.33,92.07V404.69s5.56,7.43,13.34,0V92.07Z" style="fill:none;stroke:#263238;stroke-linecap:round;stroke-linejoin:round"></path><polygon points="290.4 93.4 319.55 181.22 316.4 404.74 321.73 407.4 402.4 404.69 402.4 93.4 290.4 93.4" style="fill:#fff;stroke:#263238;stroke-linecap:round;stroke-linejoin:round"></polygon><path d="M284.4,92.07s31.93,83.92,32.05,89.87S305.06,407.4,305.06,407.4s8.67,6,16.67,0l1.33-226-24-89.33Z" style="fill:#fff"></path><g style="clip-path:url(#freepik--clip-path-7--inject-42)"><path d="M287.4,92.07s31.93,83.92,32.05,89.87S308.06,407.4,308.06,407.4s8.67,6,16.67,0l1.33-226-24-89.33Z" style="fill:#FDFA00"></path><path d="M287.4,92.07s31.93,83.92,32.05,89.87S308.06,407.4,308.06,407.4s8.67,6,16.67,0l1.33-226-24-89.33Z" style="fill:#fff;opacity:0.4"></path></g><path d="M284.4,92.07s31.93,83.92,32.05,89.87S305.06,407.4,305.06,407.4s8.67,6,16.67,0l1.33-226-24-89.33Z" style="fill:none;stroke:#263238;stroke-linecap:round;stroke-linejoin:round"></path><path d="M315.73,93.4s14.67,82.67,15.33,88-1.33,224-1.33,224,7.33,10,17.33,0l-8-226-12.66-86Z" style="fill:#FDFA00"></path><g style="clip-path:url(#freepik--clip-path-8--inject-42)"><path d="M315.73,93.4s14.67,82.67,15.33,88-1.33,224-1.33,224,7.33,10,17.33,0l-8-226-12.66-86Z" style="fill:#fff;opacity:0.4"></path></g><path d="M315.73,93.4s14.67,82.67,15.33,88-1.33,224-1.33,224,7.33,10,17.33,0l-8-226-12.66-86Z" style="fill:none;stroke:#263238;stroke-linecap:round;stroke-linejoin:round"></path><path d="M339.73,93.4s10,88,10,96.67.67,215.33.67,215.33,9.33,8,17.33,0c0,0-6-214-8-218s-6.67-94-6.67-94Z" style="fill:#FDFA00"></path><g style="clip-path:url(#freepik--clip-path-9--inject-42)"><path d="M339.73,93.4s10,88,10,96.67.67,215.33.67,215.33,9.33,8,17.33,0c0,0-6-214-8-218s-6.67-94-6.67-94Z" style="fill:#fff;opacity:0.4"></path></g><path d="M339.73,93.4s10,88,10,96.67.67,215.33.67,215.33,9.33,8,17.33,0c0,0-6-214-8-218s-6.67-94-6.67-94Z" style="fill:none;stroke:#263238;stroke-linecap:round;stroke-linejoin:round"></path><path d="M367.73,92.73l3.57,311.34s7.14,10.66,13.76,0l-5.61-310Z" style="fill:#FDFA00"></path><g style="clip-path:url(#freepik--clip-path-10--inject-42)"><path d="M367.73,92.73l3.57,311.34s7.14,10.66,13.76,0l-5.61-310Z" style="fill:#fff;opacity:0.4"></path></g><path d="M367.73,92.73l3.57,311.34s7.14,10.66,13.76,0l-5.61-310Z" style="fill:none;stroke:#263238;stroke-linecap:round;stroke-linejoin:round"></path><path d="M402.4,92.07V404.69s-5.56,7.43-13.34,0V92.07Z" style="fill:#FDFA00"></path><g style="clip-path:url(#freepik--clip-path-11--inject-42)"><path d="M402.4,92.07V404.69s-5.56,7.43-13.34,0V92.07Z" style="fill:#fff;opacity:0.4"></path></g><path d="M402.4,92.07V404.69s-5.56,7.43-13.34,0V92.07Z" style="fill:none;stroke:#263238;stroke-linecap:round;stroke-linejoin:round"></path><path d="M406.4,90.4H92.62a2,2,0,0,0-2,2h0a2,2,0,0,0,2,2H406.4a2,2,0,0,0,2-2h0A2,2,0,0,0,406.4,90.4Z" style="fill:#263238;stroke:#263238;stroke-linecap:round;stroke-linejoin:round"></path></g><g id="freepik--Plant--inject-42"><path d="M383.52,306.89c1.68.74,5.8.64,5.81.64s-.89-2.69-1-2.86c-.9-1.89-3.76-5-6.09-4.7a2.78,2.78,0,0,0-2.22,3.49C380.43,305.07,382.08,306.26,383.52,306.89Z" style="fill:#263238"></path><path d="M437.5,292.87c-2.34-.26-5.11,2.94-6,4.86-.08.16-.93,2.88-.89,2.88h.05q-.66.75-1.41,1.65c-.91,1.12-1.93,2.4-3,3.86a49.58,49.58,0,0,0-3.06,4.88,36,36,0,0,0-2.62,5.89.19.19,0,0,1,0,.07c0-.69,0-2.61,0-2.76-.27-2.08-2-5.94-4.33-6.36a2.77,2.77,0,0,0-3.2,2.61c-.13,1.65,1.06,3.3,2.23,4.35s5,2.31,5.26,2.4a49.51,49.51,0,0,0-1.54,6.38c-.22,1.26-.41,2.53-.58,3.81,0-.6,0-1.13,0-1.21-.27-2.07-2-5.93-4.32-6.36a2.78,2.78,0,0,0-3.21,2.61c-.13,1.65,1.07,3.31,2.23,4.35s4.29,2.09,5.11,2.36c-.06.49-.13,1-.19,1.47-.28,2.35-.55,4.71-.89,7-.11.82-.26,1.61-.4,2.4,0-.53,0-1,0-1-.27-2.08-2-5.94-4.32-6.36a2.78,2.78,0,0,0-3.21,2.61c-.13,1.65,1.07,3.31,2.23,4.35s4,2,5,2.31c-.17.8-.34,1.62-.54,2.39-.15.53-.26,1.05-.44,1.57s-.33,1-.5,1.54c-.35,1-.71,2-1.08,2.91-.25.65-.5,1.27-.75,1.9.13-.81.34-2.39.35-2.53a10.84,10.84,0,0,0-1.45-5.24,4.3,4.3,0,0,0,0-.62,2.77,2.77,0,0,0-3.4-2.35c-2.27.6-3.7,4.58-3.81,6.68,0,.12.07,1.47.14,2.32-.12-.5-.22-1-.35-1.48-.23-1-.5-2-.78-3.07-.16-.52-.32-1-.47-1.56s-.37-1-.55-1.58c-.45-1.23-1-2.45-1.51-3.67.88-.21,4-1,5.23-2S409,334.62,409,333a2.77,2.77,0,0,0-3-2.84c-2.33.25-4.36,4-4.78,6,0,.13-.17,1.64-.23,2.47-.33-.73-.66-1.46-1-2.19-1-2.1-2.17-4.2-3.27-6.29l-1-1.93c.31-.07,4-.93,5.42-2s2.56-2.52,2.55-4.17a2.78,2.78,0,0,0-3-2.85c-2.33.26-4.36,4-4.78,6,0,.15-.23,2.32-.25,2.87-.74-1.41-1.46-2.83-2.11-4.25a49.7,49.7,0,0,1-2.29-5.92c.15,0,4-.92,5.46-2,1.24-1,2.56-2.52,2.55-4.17a2.78,2.78,0,0,0-3-2.85c-2.34.26-4.36,4-4.79,6,0,.16-.24,2.49-.25,2.92a3.59,3.59,0,0,0-.12-.35,36.47,36.47,0,0,1-1.19-6.25c-.13-1.17-.19-2.29-.22-3.38.74-.09,4.11-.54,5.51-1.39s2.82-2.21,3-3.86a2.78,2.78,0,0,0-2.67-3.16c-2.35,0-4.77,3.47-5.41,5.46,0,.11-.27,1.25-.43,2.09,0-.5,0-1,0-1.48,0-1.77.12-3.4.23-4.84.07-.82.15-1.55.23-2.24.68-.47,3.39-2.39,4.23-3.76s1.48-3.26.87-4.8a2.78,2.78,0,0,0-3.82-1.58c-2.09,1.08-2.64,5.28-2.29,7.35,0,.18.82,2.92.85,2.89l0,0c-.09.66-.18,1.37-.26,2.15-.14,1.44-.29,3.06-.33,4.85a49.19,49.19,0,0,0,.13,5.75,36.12,36.12,0,0,0,1.07,6.36.14.14,0,0,1,0,.07c-.37-.58-1.45-2.17-1.55-2.28-1.37-1.59-4.95-3.84-7.12-2.93a2.79,2.79,0,0,0-1.23,3.95c.8,1.45,2.71,2.17,4.26,2.4,1.75.25,5.43-.81,5.72-.9a48.69,48.69,0,0,0,2.23,6.17c.51,1.17,1.05,2.34,1.61,3.5-.33-.5-.64-.93-.68-1-1.38-1.58-5-3.84-7.12-2.92a2.77,2.77,0,0,0-1.23,3.94c.8,1.46,2.71,2.17,4.26,2.4s4.72-.62,5.56-.85c.22.44.43.88.65,1.33,1.07,2.12,2.14,4.23,3.13,6.33.35.74.66,1.48,1,2.23-.3-.44-.55-.8-.6-.86-1.37-1.58-4.95-3.84-7.11-2.92a2.78,2.78,0,0,0-1.23,3.95c.8,1.45,2.71,2.17,4.26,2.39a17.48,17.48,0,0,0,5.4-.81c.31.77.61,1.54.87,2.3.17.52.36,1,.5,1.55s.29,1.05.44,1.56c.24,1,.49,2,.7,3,.15.68.28,1.34.42,2-.34-.74-1-2.18-1.1-2.3-1.12-1.77-4.32-4.54-6.59-4a2.77,2.77,0,0,0-1.82,3.71c.57,1.56,2.35,2.56,3.85,3s5.3.05,5.75,0c.22,1.09.42,2.15.6,3.16.61,3.48,1,6.41,1.23,8.46,0,.36.08.69.11,1h-7.07l2.58,50.34h12l2.58-50.34h-6.58l.15-.3c.9-1.88,2.15-4.58,3.51-7.89.43-1.05.86-2.17,1.3-3.33.44.09,4.06.83,5.74.45,1.53-.35,3.38-1.21,4.06-2.72a2.78,2.78,0,0,0-1.53-3.84c-2.23-.75-5.62,1.78-6.87,3.46-.07.1-.75,1.27-1.16,2l.53-1.43c.35-1,.68-1.94,1-3,.15-.51.3-1,.46-1.56s.28-1.08.42-1.62c.3-1.27.55-2.58.76-3.89.85.31,3.88,1.36,5.45,1.25s3.52-.68,4.42-2.07a2.78,2.78,0,0,0-.93-4c-2.09-1.08-5.83.91-7.31,2.39-.09.09-1,1.27-1.55,1.93.13-.8.25-1.59.35-2.39.29-2.33.51-4.7.74-7.05.07-.73.15-1.45.23-2.17.3.12,3.87,1.45,5.63,1.32,1.56-.1,3.52-.68,4.42-2.07a2.78,2.78,0,0,0-.93-4c-2.09-1.07-5.83.91-7.31,2.39-.11.11-1.47,1.81-1.8,2.26.17-1.58.35-3.16.59-4.71a48.27,48.27,0,0,1,1.36-6.2c.14.05,3.86,1.46,5.66,1.33,1.56-.11,3.52-.68,4.42-2.07a2.78,2.78,0,0,0-.93-4c-2.09-1.07-5.83.91-7.31,2.39-.12.11-1.58,1.95-1.82,2.3,0-.12.05-.25.09-.36a35.41,35.41,0,0,1,2.46-5.87c.53-1.05,1.1-2,1.67-2.94.67.33,3.73,1.82,5.37,1.88s3.57-.29,4.62-1.57a2.78,2.78,0,0,0-.48-4.11c-2-1.3-5.89.26-7.53,1.57-.09.07-.92.89-1.51,1.5.26-.41.53-.85.79-1.24,1-1.48,2-2.77,2.86-3.91.51-.65,1-1.22,1.43-1.75.83,0,4.15-.11,5.6-.8s3-1.9,3.38-3.52A2.77,2.77,0,0,0,437.5,292.87Zm-25.85,62.71c-1.41,3.24-2.7,5.89-3.64,7.73-.19.37-.35.7-.51,1h-.16c0-.36-.09-.75-.16-1.19-.28-2.07-.73-5-1.42-8.52-.22-1.11-.48-2.29-.75-3.5a29.05,29.05,0,0,0,3.21-1.51,19.88,19.88,0,0,0,4.68,3C412.48,353.64,412.06,354.64,411.65,355.58Z" style="fill:#263238"></path><path d="M425.2,307.8s.75-2.74.77-2.92c.29-2.08-.37-6.26-2.48-7.28a2.77,2.77,0,0,0-3.78,1.67c-.57,1.56.15,3.47,1,4.79C421.71,305.6,425.2,307.8,425.2,307.8Z" style="fill:#263238"></path></g><g id="freepik--Chair--inject-42"><rect x="106.71" y="382.04" width="58.57" height="13.01" style="fill:#263238"></rect><g style="opacity:0.5"><rect x="106.71" y="382.04" width="58.57" height="13.01" style="fill:#fff"></rect></g><rect x="106.71" y="382.04" width="58.57" height="13.01" style="fill:none;stroke:#263238;stroke-miterlimit:10"></rect><path d="M106.71,382,98,417.67a1.36,1.36,0,0,0,1.32,1.68h0a1.36,1.36,0,0,0,1.23-.8l15.26-33.91Z" style="fill:#263238"></path><path d="M184.21,314.79c.7-8.79-3.47-14.69-17.73-12.74-12,1.63-21.06,6.57-30.08,7.28-9-.71-18.1-5.65-30.08-7.28-5.21-.71-14.14.33-17.3,6-3.65,6.52.68,19.11,3.41,25,5.39,11.55,10.26,26,16,37.35L127.8,373H145l19.34-2.65C168.32,362.49,183,329.48,184.21,314.79Z" style="fill:#FDFA00"></path><path d="M172.76,301.71c3.09,2,8.05,6.3,7.28,12.75-1.11,9.26-9.26,35.2-9.26,35.2l2.76-.05c5-12.2,10-26.47,10.67-34.82C184.79,307.46,182,302.14,172.76,301.71Z" style="fill:#fff"></path><path d="M184.21,314.79c.7-8.79-3.47-14.69-17.73-12.74-12,1.63-21.06,6.57-30.08,7.28-9-.71-18.1-5.65-30.08-7.28-5.21-.71-14.14.33-17.3,6-3.65,6.52.68,19.11,3.41,25,5.39,11.55,10.26,26,16,37.35L127.8,373H145l19.34-2.65C168.32,362.49,183,329.48,184.21,314.79Z" style="fill:none;stroke:#263238;stroke-miterlimit:10"></path><path d="M166.51,382l8.71,35.63a1.36,1.36,0,0,1-1.32,1.68h0a1.37,1.37,0,0,1-1.24-.8L157.4,384.64Z" style="fill:#263238"></path><path d="M106.71,382,98,417.67a1.36,1.36,0,0,0,1.32,1.68h0a1.36,1.36,0,0,0,1.23-.8l15.26-33.91Z" style="fill:#fff;opacity:0.5"></path><path d="M166.51,382l8.71,35.63a1.36,1.36,0,0,1-1.32,1.68h0a1.37,1.37,0,0,1-1.24-.8L157.4,384.64Z" style="fill:#fff;opacity:0.5"></path><path d="M106.71,382,98,417.67a1.36,1.36,0,0,0,1.32,1.68h0a1.36,1.36,0,0,0,1.23-.8l15.26-33.91Z" style="fill:none;stroke:#263238;stroke-miterlimit:10"></path><path d="M179.26,350c-.72-10.75-10.75-4.3-10.75-4.3-5,4.3-2.86,21.27-9.31,22-5.48.61-19.26,1.22-23.25,1.39-4-.17-17.76-.78-23.25-1.39-6.44-.71-4.29-17.68-9.31-22,0,0-10-6.45-10.74,4.3s5,30.08,11.46,34.38c6,4,20.65,4.89,30.74,5h2.21c10.09-.11,24.74-1,30.74-5C174.24,380.12,180,360.78,179.26,350Z" style="fill:#FDFA00"></path><path d="M173.65,343.86l.09.24a10.88,10.88,0,0,1,2.6,7.41c0,4.82-3.34,25.19-10.38,33a4.73,4.73,0,0,0-.89,1.35,15,15,0,0,0,2.78-1.41c6.45-4.3,12.18-23.64,11.46-34.38C179,344.65,176.25,343.59,173.65,343.86Z" style="fill:#fff"></path><path d="M179.31,350c-.71-10.75-10.74-4.3-10.74-4.3-5,4.3-2.86,21.27-9.31,22-5.49.61-19.26,1.22-23.25,1.39-4-.17-17.76-.78-23.25-1.39-6.45-.71-4.3-17.68-9.31-22,0,0-10-6.45-10.74,4.3s5,30.08,11.46,34.38c6,4,20.65,4.89,30.73,5h2.21c10.09-.11,24.75-1,30.74-5C174.3,380.12,180,360.78,179.31,350Z" style="fill:none;stroke:#263238;stroke-miterlimit:10"></path><path d="M166.51,382l8.71,35.63a1.36,1.36,0,0,1-1.32,1.68h0a1.37,1.37,0,0,1-1.24-.8L157.4,384.64Z" style="fill:none;stroke:#263238;stroke-miterlimit:10"></path><path d="M140.05,389.37h.13c9.8-.25,22.29-1.33,27.71-4.94,6.88-13.67,3.65-18.67,1.36-19.73-2.75-1.28-5,.36-7.62,1.74a3.54,3.54,0,0,1-2.34,1.29c-3.7.41-11.19.83-16.89,1.1h0l-6.39.29-6.39-.29h0c-5.7-.27-13.19-.69-16.89-1.1a3.54,3.54,0,0,1-2.34-1.29c-2.66-1.38-4.87-3-7.62-1.74-2.29,1.06-5.52,6.06,1.36,19.73,5.42,3.61,17.91,4.69,27.71,4.94H132l1.42,0h5.24Z" style="fill:#FDFA00"></path><path d="M140.08,389.37h.13c9.81-.25,22.3-1.33,27.71-4.94,6.89-13.67,3.66-18.67,1.36-19.73-2.74-1.28-4.95.36-7.61,1.74a3.54,3.54,0,0,1-2.34,1.29c-3.71.41-11.2.83-16.9,1.1h0l-6.38.29-6.39-.29h0c-5.7-.27-13.19-.69-16.9-1.1a3.54,3.54,0,0,1-2.34-1.29c-2.66-1.38-4.87-3-7.61-1.74-2.3,1.06-5.53,6.06,1.36,19.73,5.41,3.61,17.9,4.69,27.71,4.94H132l1.41,0h5.25Z" style="fill:none;stroke:#263238;stroke-miterlimit:10"></path></g><g id="freepik--Character--inject-42"><path d="M239.58,281s-5,6-8.25,18.25,2.5,29.5,5,35.25,2.25,8.5,1.25,14.75-2.75,15.5-.75,23.75,6.5,26.75,6.5,29a5.41,5.41,0,0,1-1.75,3.75,2.19,2.19,0,0,0-2.5,2.25c0,2.5,6.25,5,8.25,5s1-10.25,1-13.75,1.25-23.5,1.25-28.75V364s2.25,29.25,2.25,32.75-1.25,7.25,0,8.25,3.25,1.75,3.5,3.75-.5,2,1.25,2.75,6.25,2.5,7.5,1.75-1.25-3.75-3-7a28.22,28.22,0,0,1-3-10.5c0-2.25,3-18.75,3.25-28.75s-2.75-14.5-2.5-17.5,9.25-16,11.75-28.25-2-30.25-3.25-34.25a13.12,13.12,0,0,0-3.75-6A54.61,54.61,0,0,1,239.58,281Z" style="fill:#fff;stroke:#263238;stroke-linecap:round;stroke-linejoin:round"></path><path d="M270.58,321.23c2.5-12.25-2-30.25-3.25-34.25a13.12,13.12,0,0,0-3.75-6,54.61,54.61,0,0,1-24,0s-5,6-8.25,18.25,2.5,29.5,5,35.25,2.25,8.5,1.25,14.75-2.75,15.5-.75,23.75,6.5,26.75,6.5,29a4.26,4.26,0,0,1-.21,1.33,7.31,7.31,0,0,0,5.38.61c-.07-1.87-.17-3.6-.17-4.69,0-3.5,1.25-23.5,1.25-28.75V364s1.92,24.94,2.21,31.51c2-1.1,4.38-.43,6.3.58,0-.12,0-.23,0-.34,0-2.25,3-18.75,3.25-28.75s-2.75-14.5-2.5-17.5S268.08,333.48,270.58,321.23Z" style="fill:#FDFA00"></path><g style="clip-path:url(#freepik--clip-path-12--inject-42)"><path d="M231.33,299.23c-1.85,7-.78,15.59.95,22.77,1-4.2,2.09-8.87,2.42-10.19.64-2.56-2.56-4.17-1.6-7.37.78-2.6,6.83-17.42,9.08-22.92-.86-.15-1.72-.33-2.6-.54C239.58,281,234.58,287,231.33,299.23Z" style="fill:#fff"></path><path d="M267.33,287a13.12,13.12,0,0,0-3.75-6l-.28.07-1.37,1a62.18,62.18,0,0,1,4.81,12.82c1.6,6.73.64,10.25.64,12.49s2.24,4.81,2.88,8.33a39.26,39.26,0,0,1,.49,4.66C272.86,308.1,268.55,290.89,267.33,287Z" style="fill:#fff"></path></g><path d="M270.58,321.23c2.5-12.25-2-30.25-3.25-34.25a13.12,13.12,0,0,0-3.75-6,54.61,54.61,0,0,1-24,0s-5,6-8.25,18.25,2.5,29.5,5,35.25,2.25,8.5,1.25,14.75-2.75,15.5-.75,23.75,6.5,26.75,6.5,29a4.26,4.26,0,0,1-.21,1.33,7.31,7.31,0,0,0,5.38.61c-.07-1.87-.17-3.6-.17-4.69,0-3.5,1.25-23.5,1.25-28.75V364s1.92,24.94,2.21,31.51c2-1.1,4.38-.43,6.3.58,0-.12,0-.23,0-.34,0-2.25,3-18.75,3.25-28.75s-2.75-14.5-2.5-17.5S268.08,333.48,270.58,321.23Z" style="fill:none;stroke:#263238;stroke-linecap:round;stroke-linejoin:round"></path><path d="M240.83,311.48s8.25,3.75,21.5,0" style="fill:none;stroke:#263238;stroke-linecap:round;stroke-linejoin:round"></path><line x1="249.58" y1="363.98" x2="250.58" y2="313.23" style="fill:none;stroke:#263238;stroke-linecap:round;stroke-linejoin:round"></line><path d="M238.58,273.73l1,7.25s3.25,3,12,2.75,12-2.75,12-2.75l1-9.5S255.83,278.48,238.58,273.73Z" style="fill:#263238;stroke:#263238;stroke-linecap:round;stroke-linejoin:round"></path><path d="M316.89,187.88a26.84,26.84,0,0,1,2.85-3.09,4.29,4.29,0,0,0,1.55-3c-.12-.6-4.05,2.73-4.05,2.73s1.91-2.61,2.62-3.33a3.07,3.07,0,0,0,1.19-2.26c0-1-4.28,3-4.28,3s.71-.84,1.54-1.67a15.65,15.65,0,0,0,2.74-3.21c.24-.72-1-.58-1-.58s-6.25,4.75-6.75,6.25,0,6-2,11.25-12.5,13.75-15.25,16.5-6.5,9.25-6.5,9.25-6,5.75-10.75,7.5-16.25,9.5-16.25,9.5a17.63,17.63,0,0,0-12.06-1.48,17.63,17.63,0,0,0-12.06,1.48s-11.5-7.75-16.25-9.5-10.75-7.5-10.75-7.5-3.75-6.5-6.5-9.25-13.25-11.25-15.25-16.5-1.5-9.75-2-11.25-6.75-6.25-6.75-6.25-1.2-.14-1,.58a16,16,0,0,0,2.74,3.21c.83.83,1.55,1.67,1.55,1.67S180,178,180,179a3.07,3.07,0,0,0,1.19,2.26c.72.72,2.62,3.33,2.62,3.33s-3.92-3.33-4-2.73a4.27,4.27,0,0,0,1.54,3,26.26,26.26,0,0,1,2.86,3.09s-4.28-2.37-4.28-1.9a3.05,3.05,0,0,0,1.3,2c.84.6,2.86,1.91,2.86,2.38a7,7,0,0,0,1.19,4.4c1.31,1.67,2.62,3.1,2.62,3.1s8.8,16.42,11.42,20.1,8,8.21,10.59,11.07S225.44,243,227.7,244.63s5,6.78,5,6.78-3,6.67-4.17,10.47a43.57,43.57,0,0,1-3.92,8.21s11.89,5.47,18.79,6.9a36.56,36.56,0,0,0,14.24,0c6.9-1.43,18.8-6.9,18.8-6.9a43.32,43.32,0,0,1-3.93-8.21c-1.19-3.8-4.16-10.47-4.16-10.47s2.73-5.11,5-6.78,15.23-12.73,17.85-15.58,8-7.38,10.59-11.07,11.42-20.1,11.42-20.1,1.31-1.43,2.62-3.1a7.08,7.08,0,0,0,1.19-4.4c0-.47,2-1.78,2.85-2.38a3.07,3.07,0,0,0,1.31-2C321.17,185.51,316.89,187.88,316.89,187.88Z" style="fill:#fff;stroke:#263238;stroke-linecap:round;stroke-linejoin:round"></path><g style="clip-path:url(#freepik--clip-path-13--inject-42)"><path d="M311,206.08c-1.69-1.72-3.06-2.69-4.48-2.88-3.24,3.15-9,7.9-10.39,9.28-2.75,2.75-6.5,9.25-6.5,9.25s-6,5.75-10.75,7.5-16.25,9.5-16.25,9.5a17.63,17.63,0,0,0-12.06-1.48,17.63,17.63,0,0,0-12.06,1.48s-11.5-7.75-16.25-9.5-10.75-7.5-10.75-7.5-3.75-6.5-6.5-9.25c-1.81-1.8-9.3-8.59-13.19-12.81a14.81,14.81,0,0,0-4.81,3.21c2.82,5.15,10.61,14.72,12.31,17.1,2.62,3.69,8,8.21,10.59,11.07S225.44,245,227.7,246.63s5,6.78,5,6.78-3,6.67-4.17,10.47a43.57,43.57,0,0,1-3.92,8.21s11.89,5.47,18.79,6.9a36.56,36.56,0,0,0,14.24,0c6.9-1.43,18.8-6.9,18.8-6.9a43.32,43.32,0,0,1-3.93-8.21c-1.19-3.8-4.16-10.47-4.16-10.47s2.73-5.11,5-6.78,15.23-12.73,17.85-15.58,8-7.38,10.59-11.07C303.17,218,308.31,210.87,311,206.08Z" style="fill:#FDFA00"></path></g><path d="M309,205.65a8.32,8.32,0,0,0-4.9-2.56c-3.24,3.16-6.6,6-8,7.39-2.75,2.75-6.5,9.25-6.5,9.25s-6,5.75-10.75,7.5-16.25,9.5-16.25,9.5a17.63,17.63,0,0,0-12.06-1.48,17.63,17.63,0,0,0-12.06,1.48s-11.5-7.75-16.25-9.5-10.75-7.5-10.75-7.5-3.75-6.5-6.5-9.25c-1.81-1.8-7-6.09-10.84-10.31a8.53,8.53,0,0,0-3.64,2.56c2.81,5.15,7.09,12.87,8.79,15.25,2.62,3.69,8,8.21,10.59,11.07S225.44,243,227.7,244.63s5,6.78,5,6.78-3,6.67-4.17,10.47a43.57,43.57,0,0,1-3.92,8.21s11.89,5.47,18.79,6.9a36.56,36.56,0,0,0,14.24,0c6.9-1.43,18.8-6.9,18.8-6.9a43.32,43.32,0,0,1-3.93-8.21c-1.19-3.8-4.16-10.47-4.16-10.47s2.73-5.11,5-6.78,15.23-12.73,17.85-15.58,8-7.38,10.59-11.07C303.17,216,306.33,210.43,309,205.65Z" style="fill:none;stroke:#263238;stroke-linecap:round;stroke-linejoin:round"></path><path d="M266,214.73s.5,7.5-.83,10.84-2.84,1.66-3.67.33S266,214.73,266,214.73Z" style="fill:none;stroke:#263238;stroke-linecap:round;stroke-linejoin:round"></path><path d="M251,197.9s-2.83-2.33-8.33,1.33-7.17,14.67-7.34,21.34,2.17,13.66,0,17.83-7,9.67-6.33,16,8.17,7.5,8.33,11.83,4.17,9.84,14.5,9.34,13-11.84,12.17-15.5,5-5.17,5.83-11.84-7-13.5-7.66-17.66,6.33-14.17,5.83-22.5-8-10.34-11.83-12.34S251,197.9,251,197.9Z" style="fill:#263238;stroke:#263238;stroke-linecap:round;stroke-linejoin:round"></path><path d="M254.73,266.77a4.79,4.79,0,0,0-.69,2.44" style="fill:none;stroke:#fff;stroke-linecap:round;stroke-linejoin:round"></path><path d="M262,201.35s4,5.33,2.22,14.2-16,14.19-10.64,23.06,12.42,12,8.42,18.62a48.4,48.4,0,0,1-5.78,7.5" style="fill:none;stroke:#fff;stroke-linecap:round;stroke-linejoin:round"></path><path d="M256.58,202.35c2.28,3.58,4.9,8.92,4.11,13.64-1.33,8-11.08,10.64-9.31,16" style="fill:none;stroke:#fff;stroke-linecap:round;stroke-linejoin:round"></path><path d="M253.6,198.25s.53.61,1.29,1.65" style="fill:none;stroke:#fff;stroke-linecap:round;stroke-linejoin:round"></path></g></svg>